<?xml version="1.0" encoding="UTF-8"?>
<!-- Generated from Natural Earth 10m admin boundaries (ADM0_A3=FRA): metropolitan France + Corsica -->
<svg xmlns="http://www.w3.org/2000/svg" viewBox="0 0 512 512" width="512" height="512">
  <rect width="512" height="512" fill="#ffffff"/>
  <path fill="#000000" d="M 260.27,28.00 L 260.76,29.08 L 261.08,31.15 L 261.39,32.05 L 262.53,33.23 L 263.03,33.93 L 263.13,34.86 L 262.94,35.14 L 262.21,35.83 L 262.03,36.26 L 262.65,38.31 L 262.62,38.62 L 262.37,39.14 L 262.34,39.36 L 262.44,39.52 L 262.83,39.70 L 262.97,39.85 L 263.24,40.45 L 263.41,40.71 L 263.64,40.81 L 264.11,40.90 L 264.37,40.91 L 264.96,40.84 L 265.26,40.87 L 265.68,41.07 L 265.84,41.34 L 265.94,41.66 L 266.15,42.01 L 267.33,43.07 L 267.51,43.38 L 267.94,44.33 L 268.11,44.62 L 268.70,45.08 L 271.24,46.17 L 271.38,46.24 L 271.88,46.34 L 272.30,46.03 L 273.26,44.48 L 273.83,43.89 L 274.57,43.47 L 276.23,42.98 L 278.76,42.23 L 279.58,42.47 L 280.12,42.95 L 280.65,43.84 L 281.09,44.58 L 281.48,45.47 L 281.74,45.75 L 282.18,45.80 L 282.61,45.94 L 282.86,46.37 L 283.22,47.49 L 282.78,48.27 L 283.04,49.63 L 283.88,52.27 L 283.93,53.76 L 284.09,54.30 L 284.59,54.90 L 285.01,55.21 L 286.40,55.89 L 286.95,56.04 L 287.73,55.95 L 289.12,55.47 L 289.55,55.16 L 289.86,54.86 L 290.19,54.66 L 290.64,54.63 L 291.10,54.76 L 291.31,55.00 L 291.26,55.38 L 290.95,55.90 L 291.34,56.18 L 293.40,56.19 L 294.12,56.33 L 294.81,56.66 L 295.44,57.23 L 295.96,58.12 L 296.23,59.93 L 296.23,62.12 L 296.51,64.03 L 297.63,65.02 L 297.75,64.72 L 297.80,64.69 L 297.85,64.74 L 298.00,64.64 L 298.08,64.50 L 298.22,64.11 L 298.79,63.19 L 299.05,62.92 L 299.48,62.77 L 300.86,62.67 L 302.19,62.82 L 302.84,63.14 L 303.39,63.50 L 303.96,63.75 L 304.68,63.75 L 306.70,62.94 L 307.37,62.87 L 307.99,63.15 L 309.04,64.26 L 309.72,64.63 L 310.38,65.18 L 311.25,66.95 L 311.83,67.21 L 312.07,66.99 L 312.03,66.67 L 312.04,66.37 L 312.44,66.21 L 312.73,66.31 L 313.15,66.56 L 313.55,66.89 L 313.74,67.19 L 313.67,67.68 L 313.35,68.02 L 312.60,68.58 L 312.27,69.04 L 312.12,69.42 L 311.95,70.27 L 311.34,72.15 L 311.26,73.00 L 311.71,73.22 L 312.35,72.94 L 312.69,72.89 L 313.00,73.04 L 313.54,75.07 L 313.73,75.51 L 313.95,75.88 L 313.94,76.19 L 313.18,76.55 L 312.44,77.05 L 311.86,77.57 L 311.63,77.84 L 311.47,78.19 L 311.34,78.74 L 311.49,78.80 L 311.66,79.52 L 311.70,80.21 L 311.47,80.19 L 311.45,80.19 L 313.23,81.10 L 313.66,81.22 L 314.13,81.15 L 316.09,80.88 L 320.86,82.13 L 321.10,82.19 L 322.04,82.03 L 326.47,79.94 L 327.80,79.74 L 328.14,79.52 L 328.43,78.99 L 328.66,78.24 L 328.90,76.75 L 328.87,76.42 L 328.75,76.19 L 328.67,75.91 L 328.76,75.44 L 328.94,75.08 L 332.33,71.82 L 333.19,71.44 L 333.34,72.14 L 333.69,72.29 L 334.69,72.09 L 334.98,72.46 L 334.94,73.28 L 334.77,74.25 L 334.70,75.07 L 334.35,74.71 L 334.16,74.76 L 333.56,76.01 L 333.53,76.43 L 333.58,76.82 L 333.55,77.32 L 332.32,80.22 L 332.19,80.97 L 332.61,81.62 L 334.11,82.21 L 334.61,83.08 L 334.67,83.69 L 334.58,84.09 L 334.42,84.49 L 334.25,85.06 L 334.15,85.30 L 333.86,85.62 L 333.81,85.91 L 333.87,86.14 L 334.18,86.63 L 334.26,86.91 L 334.26,88.67 L 334.54,89.02 L 335.37,89.14 L 336.09,89.03 L 337.47,88.56 L 338.05,88.53 L 338.13,88.53 L 338.71,88.84 L 339.89,89.95 L 340.52,90.30 L 341.66,90.61 L 342.04,90.96 L 343.39,92.83 L 343.86,93.27 L 344.44,93.68 L 345.17,93.89 L 346.61,93.51 L 347.30,93.49 L 347.96,94.12 L 348.57,94.84 L 348.79,95.55 L 348.65,95.72 L 348.39,95.87 L 348.29,96.54 L 348.37,96.97 L 348.52,97.15 L 349.05,97.25 L 349.28,97.18 L 349.45,96.95 L 349.58,96.69 L 349.70,96.56 L 349.90,96.60 L 350.26,96.80 L 351.24,97.15 L 351.49,97.36 L 351.84,97.66 L 353.37,100.32 L 353.50,100.75 L 353.49,101.24 L 353.39,101.68 L 353.36,102.10 L 353.55,102.51 L 354.24,102.69 L 355.07,102.23 L 355.86,101.62 L 356.46,101.37 L 357.46,101.81 L 357.73,101.88 L 358.20,101.82 L 358.31,101.63 L 358.38,101.30 L 358.76,100.80 L 359.55,100.41 L 360.26,100.57 L 360.95,100.89 L 361.63,101.01 L 362.03,100.84 L 362.44,100.32 L 362.78,100.15 L 363.12,100.19 L 363.82,100.61 L 364.19,100.69 L 365.19,101.97 L 365.74,102.47 L 366.54,102.83 L 368.56,103.29 L 369.16,103.87 L 369.59,105.22 L 370.15,105.04 L 372.86,104.88 L 373.32,104.72 L 373.63,104.26 L 374.02,104.12 L 374.09,103.87 L 374.09,103.57 L 374.25,103.29 L 374.48,103.20 L 375.38,103.12 L 375.17,102.69 L 377.00,102.49 L 377.90,102.58 L 378.77,102.92 L 378.83,102.96 L 380.34,104.05 L 381.19,104.49 L 381.82,104.56 L 382.09,104.59 L 382.43,104.52 L 383.04,104.12 L 383.29,104.03 L 383.65,104.09 L 386.56,105.49 L 387.11,106.00 L 387.31,106.39 L 387.39,106.77 L 387.40,107.03 L 387.34,107.05 L 387.56,107.37 L 389.10,108.95 L 389.21,109.23 L 389.07,109.61 L 388.51,109.63 L 388.33,110.06 L 388.53,110.61 L 389.06,111.23 L 391.18,113.20 L 391.23,113.40 L 391.16,113.87 L 391.20,114.06 L 391.37,114.19 L 391.81,114.34 L 391.94,114.48 L 392.19,115.35 L 392.30,115.55 L 392.33,115.65 L 392.39,116.02 L 392.48,116.19 L 392.62,116.17 L 393.05,115.90 L 393.18,115.90 L 393.38,116.64 L 393.22,117.23 L 393.13,117.81 L 393.53,118.47 L 393.91,118.62 L 395.32,118.63 L 396.56,119.08 L 396.97,118.99 L 397.52,118.28 L 397.39,117.50 L 397.15,116.75 L 397.34,116.09 L 397.66,116.02 L 398.98,116.31 L 399.91,116.22 L 400.26,116.27 L 402.25,117.36 L 402.93,117.39 L 402.92,119.05 L 403.29,120.34 L 403.99,120.87 L 404.96,120.27 L 405.01,120.04 L 404.91,119.79 L 404.88,119.53 L 405.17,119.26 L 405.35,119.28 L 406.56,120.13 L 407.06,120.39 L 407.56,120.55 L 410.30,120.57 L 411.15,120.96 L 411.35,120.99 L 411.54,120.81 L 411.88,120.14 L 412.08,119.91 L 412.36,119.81 L 413.01,119.73 L 413.25,119.62 L 413.41,119.37 L 413.64,118.68 L 413.79,118.45 L 414.32,118.16 L 414.45,118.12 L 415.06,117.94 L 415.68,117.99 L 415.82,118.52 L 417.19,118.61 L 417.77,118.81 L 417.98,119.49 L 417.74,119.64 L 417.66,119.74 L 417.61,119.90 L 418.05,120.35 L 418.77,121.48 L 419.19,121.99 L 419.88,122.42 L 421.27,122.65 L 421.98,123.01 L 422.21,123.29 L 422.52,123.90 L 422.82,124.15 L 423.14,124.22 L 423.26,124.24 L 423.64,124.15 L 424.01,123.99 L 424.41,123.91 L 424.76,123.97 L 425.44,124.20 L 425.74,124.24 L 426.13,124.15 L 426.88,123.75 L 427.23,123.66 L 429.87,124.40 L 431.68,124.22 L 432.26,124.28 L 437.30,126.89 L 440.42,127.52 L 440.79,127.86 L 440.78,127.88 L 440.12,128.61 L 439.13,130.43 L 437.69,134.30 L 437.29,134.95 L 437.10,135.11 L 435.93,135.72 L 435.65,135.73 L 435.59,135.85 L 435.44,135.99 L 435.29,136.24 L 435.22,136.68 L 435.15,136.94 L 434.97,137.09 L 434.73,137.17 L 433.83,137.19 L 433.47,137.30 L 433.31,137.72 L 433.27,138.62 L 433.12,138.99 L 432.78,139.43 L 432.36,139.83 L 431.98,140.07 L 431.11,141.09 L 430.63,141.50 L 430.10,141.67 L 429.73,141.93 L 428.39,143.98 L 428.12,145.51 L 428.12,147.14 L 428.49,148.13 L 428.49,148.46 L 427.70,149.07 L 427.32,149.46 L 427.15,149.88 L 427.09,150.77 L 426.92,151.23 L 426.72,151.53 L 426.50,151.98 L 426.34,152.51 L 426.10,153.75 L 426.07,154.37 L 426.17,154.93 L 426.38,155.53 L 426.54,156.16 L 426.50,156.81 L 426.06,157.50 L 425.48,157.81 L 424.96,158.23 L 424.74,159.21 L 424.68,160.16 L 424.48,160.96 L 424.14,161.64 L 422.13,164.42 L 421.92,164.99 L 421.86,165.67 L 421.70,166.04 L 421.48,166.32 L 421.25,166.74 L 421.04,167.45 L 420.84,168.37 L 420.94,170.30 L 422.31,172.70 L 422.38,174.16 L 422.08,174.73 L 421.23,175.62 L 421.06,176.25 L 421.10,177.01 L 421.04,177.22 L 420.84,177.69 L 420.71,177.92 L 420.50,178.12 L 420.40,178.32 L 420.37,178.52 L 420.38,178.64 L 420.41,178.76 L 420.40,178.97 L 420.57,179.84 L 420.50,180.36 L 420.07,180.60 L 419.89,180.82 L 419.44,182.34 L 419.35,182.99 L 419.75,184.64 L 419.73,185.40 L 419.54,185.71 L 419.02,186.27 L 418.90,186.55 L 418.99,187.56 L 419.10,188.07 L 419.22,188.28 L 419.69,188.53 L 420.12,189.13 L 420.84,190.55 L 421.03,190.79 L 421.23,190.97 L 421.40,191.21 L 421.47,191.66 L 421.39,191.83 L 421.26,192.31 L 421.24,192.31 L 420.13,192.74 L 419.36,193.16 L 419.19,193.30 L 417.98,194.29 L 418.05,194.33 L 418.58,194.73 L 418.69,194.73 L 418.70,195.20 L 418.56,195.46 L 418.31,195.55 L 417.98,195.48 L 417.79,195.58 L 417.75,195.73 L 417.82,195.92 L 418.05,196.23 L 418.08,196.33 L 418.08,196.35 L 418.08,196.47 L 418.03,196.61 L 417.98,196.69 L 417.49,197.12 L 417.08,197.06 L 416.81,196.89 L 416.67,196.80 L 416.17,196.63 L 415.80,196.74 L 415.81,197.03 L 415.97,197.32 L 416.07,197.43 L 416.23,197.65 L 416.28,197.91 L 416.18,198.35 L 416.00,198.58 L 415.55,199.17 L 414.97,199.41 L 414.67,199.53 L 413.34,199.47 L 412.46,199.43 L 411.62,199.61 L 410.42,200.14 L 410.20,200.18 L 409.96,200.07 L 409.83,199.91 L 409.74,199.74 L 409.61,199.63 L 408.67,199.34 L 407.98,198.92 L 407.80,198.16 L 408.38,196.83 L 407.52,196.91 L 407.15,196.86 L 407.09,196.85 L 406.68,196.61 L 405.93,196.45 L 404.35,196.73 L 403.52,196.61 L 403.23,196.39 L 402.94,196.31 L 402.66,196.39 L 402.38,196.61 L 401.78,196.79 L 401.86,197.31 L 402.19,197.96 L 402.35,198.52 L 402.11,198.91 L 401.63,199.32 L 401.12,199.61 L 400.28,199.80 L 400.23,200.69 L 399.42,201.17 L 398.95,201.78 L 398.55,202.52 L 398.39,203.12 L 402.18,202.74 L 402.76,202.46 L 403.23,202.85 L 403.71,203.28 L 404.04,203.76 L 403.79,204.27 L 403.50,204.46 L 403.17,204.55 L 402.84,204.75 L 402.38,205.38 L 402.20,205.45 L 401.92,205.48 L 401.32,206.10 L 401.11,207.06 L 401.24,208.23 L 399.08,209.82 L 398.16,210.77 L 397.56,211.78 L 397.49,211.84 L 395.47,213.72 L 394.52,214.05 L 394.56,214.85 L 394.10,215.09 L 393.98,215.17 L 393.87,215.47 L 393.07,215.76 L 392.77,216.06 L 392.34,216.80 L 392.72,217.67 L 392.00,218.73 L 389.88,220.36 L 386.46,221.45 L 384.91,222.35 L 384.44,223.99 L 384.57,224.42 L 385.00,225.23 L 385.10,225.75 L 385.05,226.40 L 384.93,226.70 L 384.87,226.85 L 384.65,227.26 L 384.15,228.78 L 384.10,229.01 L 384.19,229.27 L 384.36,229.50 L 384.60,229.77 L 384.61,230.56 L 384.49,230.95 L 384.13,231.40 L 383.79,231.66 L 382.74,232.22 L 381.90,233.18 L 381.59,233.45 L 379.31,234.72 L 375.04,238.70 L 374.61,239.27 L 374.71,239.89 L 375.48,240.76 L 374.35,242.20 L 373.24,244.14 L 372.88,244.54 L 372.76,244.82 L 372.76,245.06 L 372.83,245.28 L 372.90,245.48 L 372.93,245.62 L 372.93,245.98 L 372.99,246.30 L 372.93,246.61 L 372.57,246.96 L 372.72,247.06 L 374.28,248.04 L 374.75,248.55 L 375.14,249.26 L 375.18,249.78 L 374.61,251.07 L 374.15,252.13 L 374.05,252.50 L 373.82,253.83 L 373.80,254.33 L 373.83,254.77 L 373.69,255.08 L 372.99,255.30 L 372.81,255.32 L 372.62,255.30 L 372.37,255.22 L 372.31,255.21 L 372.26,255.22 L 372.21,255.23 L 370.30,256.19 L 369.53,256.69 L 369.41,257.26 L 369.74,257.90 L 370.30,258.62 L 370.20,259.02 L 369.96,259.50 L 369.54,260.52 L 370.30,260.05 L 371.74,259.70 L 373.19,259.64 L 374.27,260.13 L 375.30,259.59 L 376.93,257.64 L 378.96,256.26 L 379.78,255.37 L 379.62,254.29 L 379.40,254.19 L 378.86,254.44 L 378.53,254.27 L 378.40,254.07 L 378.09,253.29 L 378.07,253.10 L 377.78,252.31 L 377.65,251.84 L 377.82,251.20 L 378.49,250.27 L 379.40,249.04 L 380.43,248.13 L 381.41,247.81 L 382.45,247.76 L 383.49,247.49 L 386.20,245.59 L 388.23,245.18 L 390.35,245.25 L 395.09,246.50 L 395.57,246.74 L 395.86,247.21 L 395.90,247.64 L 395.93,248.10 L 395.71,248.88 L 394.87,249.89 L 394.70,250.43 L 395.31,251.50 L 396.43,252.72 L 397.15,253.99 L 396.03,256.24 L 395.48,257.92 L 395.18,259.52 L 395.46,260.31 L 397.99,260.88 L 398.48,261.37 L 398.44,261.72 L 398.22,262.08 L 397.96,262.40 L 397.82,262.65 L 397.91,262.60 L 397.96,263.07 L 397.97,263.55 L 397.93,263.60 L 397.94,263.96 L 397.87,264.16 L 397.89,264.31 L 398.17,264.52 L 398.48,264.57 L 398.72,264.38 L 398.95,264.14 L 399.21,264.03 L 399.93,264.35 L 402.09,266.85 L 402.24,266.96 L 402.36,267.46 L 402.72,268.43 L 402.94,269.29 L 403.11,269.76 L 403.33,270.14 L 402.88,270.36 L 402.54,270.79 L 402.29,271.36 L 402.09,271.99 L 401.65,272.74 L 401.01,273.30 L 400.29,273.68 L 399.62,273.89 L 398.83,273.88 L 398.61,273.91 L 398.59,274.15 L 398.55,274.48 L 398.52,274.69 L 398.32,274.75 L 398.14,274.45 L 397.93,274.32 L 397.65,274.20 L 396.79,274.47 L 396.30,274.78 L 395.90,275.47 L 395.73,276.24 L 395.70,277.07 L 395.79,277.91 L 396.15,279.86 L 396.79,280.85 L 397.64,281.52 L 398.48,281.69 L 398.90,281.86 L 399.62,282.60 L 400.05,282.93 L 401.08,283.20 L 401.47,283.49 L 401.66,284.18 L 401.59,284.45 L 401.22,285.28 L 401.14,285.67 L 401.20,286.04 L 401.55,286.60 L 401.67,286.95 L 401.85,288.88 L 402.09,289.57 L 403.54,290.41 L 404.92,291.49 L 405.03,291.67 L 405.23,292.01 L 405.45,292.59 L 405.71,293.12 L 406.13,293.45 L 407.49,294.07 L 407.74,294.27 L 407.71,294.85 L 407.43,295.56 L 406.77,296.79 L 405.74,298.07 L 405.58,298.35 L 405.74,299.71 L 406.08,300.65 L 406.08,301.38 L 405.21,302.14 L 404.61,303.29 L 404.40,303.52 L 404.23,303.45 L 403.83,302.95 L 403.58,302.84 L 402.46,303.16 L 401.32,303.70 L 400.91,304.11 L 400.36,305.12 L 399.89,305.56 L 399.60,305.63 L 398.86,305.64 L 398.61,305.76 L 398.44,306.16 L 398.59,306.41 L 398.77,306.63 L 398.71,306.92 L 397.68,307.44 L 396.53,307.02 L 395.37,306.36 L 394.25,306.16 L 394.01,306.29 L 393.44,306.75 L 393.17,306.92 L 392.92,306.96 L 392.34,306.94 L 392.06,306.99 L 390.96,307.65 L 390.85,307.75 L 390.38,308.16 L 390.00,308.69 L 390.56,309.58 L 391.08,310.05 L 391.13,310.38 L 391.09,310.75 L 391.18,311.18 L 391.56,311.87 L 391.89,312.17 L 393.01,312.28 L 393.84,312.91 L 394.05,314.26 L 393.98,316.88 L 394.54,317.87 L 395.58,318.81 L 397.77,320.15 L 398.37,320.31 L 399.94,319.98 L 400.49,320.03 L 402.09,320.72 L 402.66,321.37 L 402.79,321.61 L 402.86,321.89 L 402.85,322.03 L 402.82,322.16 L 402.82,322.38 L 402.76,322.41 L 402.61,323.15 L 402.58,323.21 L 402.94,324.23 L 403.11,325.39 L 403.24,325.79 L 404.20,327.71 L 404.39,328.32 L 403.82,328.33 L 402.67,327.98 L 402.09,327.98 L 401.36,328.40 L 400.77,329.16 L 400.55,330.11 L 400.90,331.11 L 400.46,331.46 L 399.37,333.46 L 397.75,334.77 L 397.41,335.40 L 397.51,336.86 L 398.22,338.17 L 399.19,339.25 L 400.02,339.98 L 398.95,340.60 L 398.73,341.01 L 398.46,342.47 L 398.38,342.75 L 398.38,342.99 L 398.50,343.42 L 398.63,343.64 L 399.33,344.51 L 399.58,344.97 L 399.95,345.92 L 400.13,346.27 L 400.41,346.59 L 401.04,347.07 L 401.34,347.44 L 401.54,347.90 L 401.64,348.34 L 401.79,348.75 L 402.09,349.11 L 402.51,349.29 L 402.89,349.23 L 403.27,349.09 L 403.70,349.05 L 404.10,349.17 L 405.97,350.23 L 407.24,350.73 L 410.62,352.94 L 411.22,353.21 L 412.05,353.36 L 412.47,353.53 L 412.69,353.87 L 412.86,354.26 L 413.16,354.57 L 413.46,354.65 L 414.74,354.68 L 420.27,352.99 L 421.19,352.91 L 422.49,352.00 L 423.48,352.19 L 423.04,353.71 L 423.43,354.59 L 424.13,355.33 L 424.50,356.19 L 424.63,356.48 L 424.57,357.29 L 424.21,357.79 L 423.75,358.17 L 423.40,358.58 L 423.20,359.16 L 422.94,360.21 L 422.69,360.75 L 421.98,361.59 L 420.34,363.07 L 419.70,364.16 L 418.32,365.78 L 417.82,366.75 L 417.98,367.94 L 418.60,370.19 L 418.18,370.51 L 418.05,370.51 L 417.91,370.49 L 417.78,370.55 L 417.76,370.73 L 417.81,371.32 L 417.78,371.49 L 417.52,371.62 L 417.34,371.60 L 417.08,371.84 L 416.81,372.18 L 416.54,372.48 L 416.18,371.92 L 415.57,371.54 L 414.95,371.80 L 414.48,372.37 L 414.31,372.92 L 414.26,373.45 L 413.86,373.78 L 413.51,374.15 L 413.38,374.60 L 413.14,375.15 L 412.77,375.21 L 412.20,375.10 L 411.54,374.83 L 410.81,374.91 L 410.32,375.23 L 409.90,375.73 L 410.00,376.23 L 409.43,376.93 L 409.11,377.13 L 408.89,376.54 L 408.28,376.39 L 407.87,376.58 L 407.45,376.64 L 407.22,377.08 L 406.97,377.28 L 406.86,377.62 L 406.64,378.93 L 406.83,380.20 L 406.85,380.45 L 406.96,380.97 L 407.05,381.37 L 406.62,381.66 L 406.22,380.87 L 405.95,380.70 L 405.44,380.68 L 404.89,381.05 L 404.48,381.56 L 404.07,381.92 L 403.82,382.20 L 403.61,381.65 L 403.09,381.69 L 402.44,381.61 L 401.86,381.70 L 401.43,382.02 L 400.89,382.62 L 400.75,383.31 L 401.03,383.53 L 401.01,383.55 L 401.16,383.68 L 401.18,383.89 L 400.25,385.18 L 400.10,386.29 L 399.40,386.81 L 399.26,387.29 L 398.53,387.37 L 398.49,387.09 L 398.39,386.93 L 398.28,386.74 L 398.12,386.89 L 398.06,387.24 L 398.19,387.85 L 397.76,388.00 L 397.38,387.85 L 396.87,387.84 L 395.74,388.18 L 395.42,387.72 L 394.91,387.53 L 394.57,387.75 L 394.09,388.22 L 394.14,389.43 L 393.66,390.14 L 393.66,390.91 L 392.90,391.01 L 392.29,391.10 L 392.02,391.72 L 391.87,392.23 L 391.57,392.58 L 390.70,393.47 L 389.83,394.03 L 389.63,394.74 L 390.29,394.96 L 392.22,394.40 L 392.89,394.55 L 393.03,394.90 L 392.63,395.72 L 392.09,396.12 L 392.00,396.97 L 392.21,397.33 L 392.45,397.90 L 391.84,398.42 L 391.20,398.82 L 390.84,398.91 L 390.23,399.22 L 389.90,399.14 L 389.77,398.91 L 389.70,398.55 L 389.32,398.70 L 388.76,398.70 L 388.01,398.81 L 387.90,399.26 L 387.59,399.82 L 386.92,400.27 L 386.08,400.03 L 385.19,400.19 L 384.26,400.21 L 383.61,400.46 L 382.88,400.97 L 382.48,401.79 L 382.60,402.40 L 382.78,403.09 L 381.72,403.09 L 381.30,402.67 L 381.20,402.46 L 380.58,402.22 L 379.76,401.79 L 378.90,401.68 L 377.83,401.89 L 376.99,402.25 L 376.52,402.53 L 376.02,403.01 L 375.71,403.98 L 375.70,405.10 L 376.29,405.37 L 376.74,405.22 L 376.57,405.67 L 375.75,405.77 L 373.95,405.89 L 373.66,405.72 L 374.12,405.44 L 374.63,405.23 L 375.04,404.88 L 374.95,404.00 L 374.33,403.40 L 373.77,403.46 L 372.26,403.68 L 371.70,403.68 L 371.37,402.71 L 370.58,402.55 L 369.53,402.56 L 368.75,402.02 L 368.83,401.75 L 368.88,401.30 L 368.97,401.07 L 368.44,401.05 L 367.94,401.19 L 367.01,401.70 L 367.55,401.94 L 368.00,402.98 L 368.53,403.24 L 369.30,403.60 L 368.95,404.03 L 368.21,403.94 L 367.28,403.96 L 366.88,404.13 L 366.29,405.25 L 365.09,404.84 L 364.18,404.07 L 363.91,403.64 L 364.58,403.18 L 365.06,402.70 L 364.85,402.35 L 364.50,402.11 L 363.96,401.98 L 363.88,401.57 L 363.73,401.22 L 363.23,401.16 L 362.61,401.16 L 361.19,400.46 L 360.92,399.43 L 360.48,398.91 L 359.88,398.65 L 359.22,398.57 L 358.86,399.06 L 358.52,399.83 L 357.75,399.47 L 357.26,399.42 L 356.82,398.83 L 356.45,398.26 L 356.15,397.62 L 355.74,397.38 L 355.40,397.61 L 355.08,397.71 L 353.67,397.57 L 353.03,397.61 L 352.07,397.44 L 351.62,397.39 L 350.83,397.60 L 350.08,397.23 L 350.20,396.40 L 350.30,395.92 L 350.53,395.44 L 350.79,394.67 L 350.41,394.20 L 350.37,393.65 L 350.24,393.38 L 349.83,391.67 L 348.41,390.68 L 346.63,391.96 L 344.24,391.91 L 343.03,392.07 L 341.11,391.97 L 340.14,391.62 L 339.50,390.56 L 339.23,389.45 L 339.89,388.15 L 340.87,387.55 L 343.70,387.55 L 344.58,387.26 L 345.19,386.74 L 345.84,385.88 L 346.25,384.82 L 346.14,383.71 L 345.21,384.37 L 344.32,384.72 L 343.50,384.57 L 342.82,383.71 L 342.60,382.99 L 342.58,382.59 L 342.42,382.35 L 341.76,382.11 L 341.52,382.08 L 340.76,382.11 L 340.63,381.95 L 340.18,381.28 L 339.98,381.15 L 339.76,381.45 L 339.56,382.08 L 339.40,382.72 L 339.35,383.07 L 339.52,383.96 L 339.81,384.35 L 340.19,384.58 L 340.65,384.99 L 341.03,386.17 L 340.68,387.22 L 339.93,387.79 L 339.01,387.90 L 338.52,387.79 L 336.78,386.71 L 335.98,387.11 L 335.64,387.40 L 334.86,387.58 L 334.55,387.88 L 334.29,388.52 L 334.44,388.77 L 334.76,389.63 L 334.84,390.23 L 335.91,390.14 L 335.15,390.90 L 334.47,391.32 L 334.31,390.52 L 333.75,389.43 L 332.43,388.63 L 331.36,387.54 L 330.87,386.30 L 330.95,383.55 L 330.87,382.75 L 330.67,382.05 L 330.34,381.24 L 329.90,380.54 L 329.35,380.19 L 329.35,380.48 L 330.29,382.10 L 330.43,382.59 L 330.43,385.95 L 330.87,387.53 L 331.73,388.50 L 332.70,389.24 L 333.43,390.13 L 333.34,391.11 L 332.42,391.16 L 328.43,391.05 L 326.10,390.47 L 325.27,389.95 L 325.24,389.15 L 325.88,388.39 L 325.96,387.80 L 325.69,387.18 L 324.91,386.56 L 323.57,385.97 L 320.28,386.35 L 313.81,385.78 L 313.04,385.60 L 312.36,385.24 L 311.49,384.51 L 310.99,383.41 L 311.49,382.36 L 311.44,382.20 L 310.61,381.47 L 308.77,381.27 L 306.98,381.51 L 305.77,382.03 L 305.34,382.37 L 299.00,387.99 L 295.25,389.77 L 294.22,390.71 L 291.80,394.17 L 291.13,394.48 L 289.86,393.81 L 289.09,393.96 L 287.73,394.03 L 285.58,395.01 L 283.24,397.06 L 282.71,397.77 L 282.50,398.20 L 282.07,398.60 L 281.70,399.07 L 281.16,399.60 L 280.75,400.20 L 280.39,401.01 L 279.80,401.67 L 279.10,402.37 L 278.79,403.23 L 278.53,403.95 L 278.21,404.82 L 277.71,406.09 L 277.49,406.96 L 277.26,407.69 L 276.94,409.03 L 276.72,410.04 L 276.81,410.50 L 277.21,410.77 L 277.26,411.71 L 276.99,414.52 L 276.76,417.19 L 276.72,419.07 L 276.85,420.27 L 276.67,422.21 L 276.81,424.75 L 276.94,426.69 L 277.12,428.23 L 277.58,428.83 L 278.26,429.17 L 279.12,429.37 L 279.84,429.64 L 280.11,430.10 L 280.11,430.64 L 280.02,431.17 L 280.25,431.64 L 280.57,431.98 L 281.07,432.85 L 281.25,433.85 L 281.23,434.02 L 279.86,434.28 L 279.03,434.32 L 278.21,434.22 L 277.56,433.99 L 277.18,433.73 L 276.87,433.37 L 276.62,432.93 L 276.42,432.42 L 276.21,432.35 L 275.28,432.32 L 274.94,432.24 L 274.40,432.63 L 273.37,432.20 L 272.32,433.09 L 271.79,433.19 L 271.25,433.17 L 270.73,433.23 L 270.22,433.56 L 269.26,434.58 L 268.76,434.93 L 268.09,435.05 L 266.85,434.84 L 266.20,434.89 L 265.63,435.21 L 264.29,436.36 L 264.04,436.77 L 264.33,437.67 L 264.72,438.15 L 264.74,438.36 L 263.89,438.41 L 263.19,438.26 L 261.72,437.72 L 261.11,437.74 L 260.86,437.98 L 260.60,438.74 L 260.38,438.97 L 260.05,438.98 L 259.70,438.85 L 259.05,438.45 L 258.47,438.28 L 257.85,437.75 L 257.35,437.02 L 257.12,436.26 L 256.61,436.23 L 255.62,436.00 L 253.77,435.04 L 253.39,434.70 L 252.51,434.15 L 251.51,434.27 L 249.54,434.94 L 248.04,434.73 L 247.53,435.00 L 247.38,435.24 L 247.14,435.93 L 246.99,436.21 L 246.23,436.84 L 245.70,437.47 L 245.33,437.73 L 244.81,437.88 L 243.98,437.98 L 243.55,437.90 L 243.16,437.63 L 242.53,437.03 L 242.23,436.31 L 241.81,434.55 L 241.38,433.76 L 240.89,433.53 L 240.29,433.49 L 239.55,433.30 L 237.76,431.97 L 237.10,431.66 L 235.12,431.37 L 234.54,431.10 L 234.55,430.96 L 234.53,430.84 L 234.47,430.74 L 234.37,430.67 L 234.49,429.50 L 234.84,428.53 L 235.42,427.91 L 236.22,427.83 L 236.09,427.63 L 235.82,427.21 L 235.09,426.96 L 234.57,426.60 L 234.85,425.65 L 231.24,425.26 L 230.89,425.09 L 229.16,423.80 L 228.68,423.84 L 227.74,424.23 L 226.74,424.17 L 226.25,426.02 L 225.54,426.33 L 225.08,425.68 L 224.55,424.07 L 223.94,423.15 L 223.38,422.05 L 223.11,421.89 L 222.81,421.87 L 222.65,421.68 L 222.79,421.02 L 222.04,420.80 L 218.13,420.78 L 217.06,421.16 L 216.71,421.11 L 216.17,420.67 L 215.84,420.03 L 215.60,419.30 L 215.29,418.63 L 214.73,418.08 L 214.06,417.85 L 211.35,417.65 L 211.11,417.50 L 210.59,417.03 L 210.32,416.91 L 209.99,417.03 L 209.69,417.29 L 209.39,417.47 L 209.05,417.31 L 208.54,416.76 L 208.27,416.53 L 207.32,416.13 L 205.95,415.25 L 205.40,415.15 L 204.79,415.21 L 204.23,415.08 L 203.13,414.61 L 202.58,414.55 L 201.70,414.62 L 200.97,414.93 L 200.82,415.60 L 200.89,416.61 L 200.44,417.92 L 200.79,418.45 L 200.56,418.65 L 200.44,418.85 L 200.25,419.32 L 200.70,419.50 L 201.08,420.02 L 201.29,420.73 L 201.26,421.49 L 201.20,421.60 L 200.99,421.99 L 200.57,422.15 L 199.44,421.99 L 195.48,422.11 L 194.95,421.87 L 193.74,422.22 L 193.12,422.26 L 192.48,422.12 L 192.33,421.96 L 192.31,421.77 L 192.32,421.57 L 192.25,421.42 L 191.37,420.60 L 190.79,420.83 L 190.23,421.45 L 189.33,422.82 L 188.86,422.89 L 188.37,422.25 L 187.69,420.94 L 187.18,420.66 L 185.49,420.18 L 184.97,420.27 L 184.37,420.71 L 182.42,421.03 L 179.97,422.01 L 178.87,422.12 L 177.62,421.58 L 177.43,421.37 L 177.28,421.14 L 177.06,420.92 L 176.66,420.80 L 176.32,420.63 L 176.24,420.33 L 176.19,420.00 L 176.00,419.74 L 175.48,419.27 L 175.09,418.58 L 174.91,417.77 L 174.98,416.95 L 174.41,417.21 L 173.48,417.49 L 172.63,417.38 L 172.26,416.51 L 170.41,415.29 L 170.34,415.24 L 169.85,414.74 L 169.67,415.20 L 169.45,415.56 L 169.20,415.67 L 168.93,415.36 L 167.40,416.67 L 166.63,417.17 L 165.66,417.25 L 163.95,416.38 L 163.14,416.36 L 163.08,417.47 L 162.80,417.58 L 162.27,417.97 L 162.02,418.02 L 161.71,417.80 L 161.72,417.52 L 161.76,417.21 L 161.58,416.93 L 161.44,416.88 L 160.92,416.88 L 160.71,416.78 L 160.72,416.60 L 160.78,416.40 L 160.73,416.20 L 159.50,414.40 L 158.93,413.88 L 157.84,413.15 L 157.52,413.09 L 157.21,413.14 L 156.90,413.10 L 156.58,412.76 L 156.40,412.33 L 156.43,412.08 L 156.54,411.86 L 156.56,411.53 L 156.42,411.16 L 155.96,409.86 L 155.11,409.54 L 152.66,410.02 L 150.12,409.80 L 148.91,409.37 L 147.80,408.47 L 147.41,407.98 L 146.89,407.81 L 145.79,407.66 L 145.55,407.45 L 145.02,407.08 L 144.75,406.96 L 143.55,407.08 L 142.52,406.17 L 141.42,405.51 L 139.58,405.16 L 138.98,404.76 L 138.45,404.09 L 138.30,403.46 L 138.56,402.85 L 139.23,402.23 L 138.51,402.02 L 137.80,402.32 L 137.25,402.99 L 137.03,403.93 L 136.95,405.16 L 136.68,405.79 L 136.14,405.98 L 135.27,405.90 L 134.49,405.68 L 133.79,405.24 L 133.21,404.53 L 132.81,403.51 L 133.07,403.12 L 134.38,401.59 L 134.78,401.01 L 135.27,399.52 L 135.61,397.65 L 135.49,395.94 L 134.58,394.92 L 134.20,394.92 L 133.85,395.05 L 133.49,395.12 L 132.17,394.37 L 131.18,394.05 L 130.55,394.03 L 130.07,394.34 L 129.82,395.14 L 129.64,395.55 L 129.29,395.77 L 128.89,395.82 L 128.55,395.77 L 128.16,395.57 L 128.00,395.36 L 127.77,394.56 L 127.72,394.15 L 127.81,393.86 L 127.81,393.64 L 127.50,393.40 L 126.90,393.09 L 126.61,393.05 L 125.96,393.34 L 125.28,393.44 L 124.90,393.64 L 124.56,393.70 L 124.49,393.52 L 124.40,393.32 L 124.29,392.41 L 123.90,391.83 L 122.99,391.35 L 122.98,390.78 L 123.00,389.79 L 123.08,389.25 L 123.16,389.31 L 123.18,389.33 L 123.67,389.71 L 123.91,389.36 L 124.49,389.09 L 127.31,388.60 L 128.04,387.47 L 128.75,387.06 L 129.35,386.59 L 129.63,386.19 L 130.31,384.74 L 130.45,384.21 L 130.73,383.83 L 131.98,382.09 L 132.22,381.55 L 133.16,380.14 L 133.38,378.67 L 134.14,376.00 L 135.45,368.31 L 136.20,365.62 L 137.32,359.55 L 139.37,346.27 L 140.24,339.69 L 140.46,336.78 L 140.38,336.09 L 140.11,334.76 L 140.14,334.36 L 140.98,333.07 L 141.11,332.78 L 141.19,332.21 L 141.76,330.06 L 142.39,329.23 L 143.19,329.20 L 145.13,329.71 L 146.25,329.53 L 146.90,329.05 L 146.91,328.33 L 146.12,327.46 L 146.56,327.46 L 146.24,326.79 L 143.84,324.42 L 143.50,324.26 L 143.35,324.17 L 143.21,324.02 L 143.06,323.92 L 142.84,323.94 L 142.71,324.08 L 142.65,324.29 L 142.60,324.47 L 142.53,324.55 L 142.32,324.99 L 140.89,327.29 L 140.53,329.36 L 140.25,330.49 L 140.04,331.02 L 141.98,307.87 L 143.30,300.45 L 143.87,290.55 L 144.07,289.86 L 145.15,287.58 L 145.61,286.85 L 146.12,286.65 L 146.46,286.82 L 146.53,287.03 L 146.51,287.39 L 146.50,287.91 L 146.41,288.07 L 146.34,288.32 L 146.34,288.57 L 146.44,288.82 L 146.77,289.38 L 147.05,289.75 L 149.18,291.47 L 150.52,292.25 L 151.01,292.41 L 154.86,296.87 L 155.75,298.25 L 156.12,299.66 L 156.20,300.60 L 156.63,302.34 L 157.22,306.70 L 157.35,307.23 L 158.42,309.95 L 159.50,311.43 L 160.72,312.67 L 161.74,313.30 L 162.02,313.63 L 162.28,314.22 L 162.33,314.66 L 162.24,315.41 L 162.28,316.39 L 162.42,317.36 L 162.68,318.12 L 163.11,318.47 L 162.99,317.82 L 162.87,316.49 L 162.67,315.91 L 162.97,314.64 L 162.61,313.63 L 161.91,312.87 L 161.16,312.38 L 162.14,312.43 L 162.96,312.63 L 163.69,313.01 L 164.41,313.63 L 163.61,312.16 L 162.35,311.50 L 160.97,311.03 L 159.83,310.11 L 159.25,308.89 L 158.85,307.40 L 157.64,298.42 L 157.23,296.60 L 156.17,293.65 L 155.53,292.33 L 154.82,291.16 L 153.35,289.41 L 148.84,286.01 L 148.74,285.81 L 148.61,284.93 L 148.41,284.73 L 147.36,284.32 L 145.65,282.56 L 144.70,282.16 L 144.10,282.03 L 143.57,281.70 L 143.12,281.22 L 142.74,280.69 L 142.15,280.23 L 141.03,280.48 L 140.46,280.24 L 141.00,276.97 L 141.00,276.37 L 143.11,275.70 L 143.73,275.73 L 145.76,278.20 L 146.12,278.45 L 146.50,278.82 L 148.73,279.89 L 148.01,279.06 L 145.16,276.67 L 144.33,275.66 L 144.16,275.23 L 144.12,274.69 L 143.98,273.99 L 143.77,273.31 L 143.50,272.82 L 143.85,272.62 L 144.07,272.35 L 144.23,272.07 L 144.38,271.86 L 144.74,271.53 L 145.23,271.22 L 145.53,271.17 L 145.78,271.23 L 145.99,271.12 L 146.12,270.58 L 146.08,270.09 L 145.89,269.60 L 145.67,269.20 L 145.47,268.94 L 145.64,268.80 L 145.96,268.44 L 146.12,268.31 L 145.60,267.95 L 145.25,267.32 L 144.80,265.77 L 145.47,266.25 L 146.00,266.28 L 146.42,265.89 L 146.77,265.10 L 146.77,264.81 L 146.64,264.60 L 146.46,264.39 L 146.25,264.22 L 145.64,263.98 L 145.53,263.60 L 145.50,263.13 L 145.27,262.49 L 145.28,262.05 L 145.23,261.87 L 145.12,261.80 L 144.71,261.66 L 144.60,261.58 L 144.41,261.36 L 144.22,261.20 L 144.22,261.00 L 144.60,260.62 L 143.86,260.04 L 143.61,259.98 L 143.48,259.89 L 143.49,259.67 L 143.53,259.45 L 143.50,259.31 L 143.33,259.27 L 142.84,259.31 L 142.51,259.21 L 142.23,259.23 L 141.96,259.17 L 141.65,258.84 L 141.62,258.45 L 141.82,257.99 L 142.14,257.59 L 142.43,257.39 L 142.26,256.49 L 142.61,255.87 L 144.80,254.48 L 145.06,253.88 L 145.03,253.50 L 144.89,253.10 L 144.80,252.44 L 144.11,251.43 L 142.68,251.34 L 141.51,252.06 L 141.54,253.54 L 140.69,253.30 L 140.08,252.54 L 139.50,251.65 L 138.99,251.50 L 138.67,251.44 L 137.69,250.84 L 136.98,250.20 L 136.55,250.02 L 134.86,250.57 L 134.05,250.53 L 133.71,249.53 L 133.52,248.34 L 133.01,247.49 L 132.28,246.97 L 131.41,246.79 L 129.28,246.70 L 128.43,246.41 L 128.70,245.83 L 128.18,245.33 L 126.49,245.02 L 125.42,244.06 L 124.52,243.81 L 124.12,243.56 L 123.89,243.17 L 123.53,242.14 L 123.23,241.64 L 123.24,242.22 L 123.43,242.99 L 123.47,243.40 L 123.33,243.61 L 123.03,243.44 L 122.74,243.01 L 122.03,239.57 L 122.17,238.75 L 121.66,238.54 L 121.41,238.01 L 121.26,237.38 L 121.06,236.83 L 120.59,236.27 L 120.10,235.84 L 119.72,235.38 L 119.39,234.19 L 118.97,233.84 L 118.44,233.66 L 117.91,233.60 L 117.64,233.31 L 116.70,231.36 L 114.93,229.48 L 113.95,228.77 L 113.12,228.48 L 112.75,228.17 L 112.52,227.44 L 112.40,226.55 L 112.36,225.74 L 112.44,224.73 L 112.65,224.25 L 113.47,223.65 L 113.28,222.98 L 113.75,222.49 L 114.97,221.72 L 115.35,221.02 L 115.89,219.33 L 116.27,218.49 L 116.83,218.07 L 116.77,217.28 L 116.41,216.44 L 116.07,215.90 L 115.58,215.41 L 113.66,214.33 L 110.00,213.67 L 108.86,213.05 L 109.29,212.76 L 109.63,212.44 L 110.00,212.17 L 111.04,212.02 L 111.28,211.85 L 111.38,211.47 L 111.47,210.78 L 111.49,210.14 L 111.15,209.40 L 111.06,208.69 L 111.10,208.18 L 111.22,207.57 L 111.43,207.01 L 111.71,206.61 L 112.47,206.28 L 115.40,205.97 L 115.62,205.80 L 115.83,205.69 L 116.07,205.65 L 116.32,205.97 L 116.56,206.19 L 118.19,206.63 L 118.68,206.61 L 118.46,206.29 L 118.82,206.30 L 119.17,206.40 L 119.48,206.60 L 119.76,206.90 L 119.11,206.90 L 119.11,207.25 L 120.41,208.21 L 121.74,208.47 L 122.06,208.69 L 122.76,209.46 L 123.49,209.79 L 125.21,209.84 L 124.57,209.41 L 123.26,209.15 L 122.71,208.69 L 121.75,207.55 L 120.63,206.61 L 119.53,205.94 L 118.89,205.73 L 118.14,205.65 L 117.86,205.54 L 117.41,205.09 L 116.21,204.73 L 111.82,205.04 L 110.82,205.65 L 110.60,206.00 L 110.47,206.30 L 110.30,206.60 L 109.97,206.90 L 109.03,207.18 L 108.28,207.93 L 107.68,208.17 L 107.05,208.16 L 106.48,207.93 L 106.01,207.50 L 105.23,206.59 L 104.72,206.29 L 104.19,206.22 L 103.90,206.24 L 103.66,206.29 L 103.41,206.51 L 103.29,206.83 L 103.24,207.12 L 103.20,207.25 L 102.28,207.22 L 99.30,205.65 L 99.30,205.33 L 100.03,205.44 L 101.40,206.09 L 102.12,205.97 L 102.66,205.33 L 102.37,204.70 L 101.73,204.07 L 101.25,203.41 L 101.02,203.53 L 100.91,203.60 L 100.82,203.70 L 100.97,204.04 L 100.99,204.23 L 100.82,204.69 L 100.58,204.69 L 100.53,203.33 L 100.16,202.61 L 98.84,201.75 L 101.37,200.23 L 101.71,200.25 L 102.04,200.40 L 102.57,200.50 L 102.51,200.76 L 102.47,200.76 L 102.34,200.85 L 102.57,201.14 L 102.88,200.78 L 103.97,200.17 L 104.07,199.86 L 103.59,199.76 L 102.80,199.74 L 102.28,199.53 L 102.57,198.87 L 102.06,198.52 L 101.39,198.45 L 100.99,198.19 L 101.25,197.30 L 100.80,196.69 L 101.16,196.37 L 103.14,196.27 L 104.30,195.94 L 104.96,195.99 L 104.45,195.84 L 103.59,195.99 L 103.01,195.99 L 100.58,195.02 L 100.08,194.94 L 99.67,195.00 L 98.63,195.35 L 97.43,195.35 L 97.14,195.44 L 96.96,195.61 L 96.77,195.65 L 96.44,195.35 L 96.92,195.26 L 97.48,194.91 L 97.95,194.38 L 98.19,193.75 L 97.70,194.23 L 97.25,194.30 L 96.78,194.26 L 96.24,194.39 L 96.50,194.44 L 96.70,194.53 L 96.82,194.71 L 96.89,195.02 L 96.09,195.04 L 95.72,194.95 L 95.37,194.70 L 95.32,195.83 L 94.89,196.08 L 93.83,195.69 L 93.30,195.73 L 91.65,196.30 L 91.03,196.36 L 90.55,196.31 L 90.14,196.11 L 89.71,195.69 L 89.65,195.52 L 89.16,194.60 L 89.04,194.55 L 88.91,194.30 L 88.60,194.15 L 88.24,194.09 L 88.14,194.04 L 88.19,193.98 L 88.17,193.75 L 87.63,193.54 L 88.16,193.15 L 89.02,193.15 L 89.49,194.09 L 89.71,194.09 L 89.89,193.85 L 90.07,193.74 L 90.29,193.81 L 90.58,194.09 L 90.61,193.79 L 90.79,193.10 L 91.29,193.69 L 92.09,193.95 L 92.96,193.87 L 93.64,193.43 L 93.40,193.10 L 94.64,191.38 L 94.79,190.51 L 94.07,189.58 L 94.07,189.87 L 94.38,190.19 L 94.42,190.49 L 94.23,190.72 L 93.83,190.83 L 94.28,191.15 L 94.14,191.38 L 94.00,191.48 L 93.64,191.50 L 93.47,191.24 L 91.88,190.22 L 92.55,190.32 L 93.18,190.54 L 92.80,190.00 L 92.43,189.75 L 91.44,189.58 L 91.88,189.87 L 91.22,190.18 L 89.58,190.36 L 89.26,190.69 L 88.98,191.25 L 88.35,191.54 L 87.30,191.80 L 87.30,191.50 L 87.52,191.50 L 87.52,191.15 L 87.10,191.23 L 87.00,191.30 L 86.87,191.50 L 86.65,191.50 L 86.53,190.93 L 86.49,190.46 L 86.60,190.09 L 86.87,189.87 L 86.41,189.85 L 86.08,189.61 L 85.87,189.17 L 85.78,188.59 L 85.55,188.59 L 85.59,188.96 L 85.74,189.55 L 85.78,189.87 L 85.78,190.99 L 85.90,191.46 L 86.18,191.98 L 86.54,192.45 L 86.87,192.78 L 86.79,193.11 L 86.74,193.24 L 86.65,193.43 L 86.56,193.26 L 86.24,192.78 L 85.97,192.97 L 85.69,192.67 L 85.35,192.18 L 84.92,191.80 L 85.10,192.42 L 84.92,192.71 L 84.63,192.59 L 84.48,191.97 L 84.37,191.25 L 84.16,191.32 L 84.05,191.84 L 84.24,192.47 L 83.79,192.43 L 83.60,192.37 L 83.39,192.14 L 82.39,192.69 L 81.89,192.73 L 81.44,192.47 L 81.65,192.33 L 81.86,192.14 L 81.55,191.86 L 81.18,191.62 L 80.82,191.64 L 80.55,192.14 L 80.70,192.21 L 80.83,192.37 L 80.99,192.47 L 80.64,194.04 L 80.82,195.39 L 81.35,196.47 L 82.05,197.30 L 81.62,197.28 L 80.95,197.09 L 80.75,197.30 L 80.55,197.30 L 80.17,195.95 L 80.12,195.52 L 80.19,195.01 L 80.49,194.22 L 80.55,193.58 L 80.47,192.49 L 80.25,191.68 L 79.90,191.06 L 79.45,190.54 L 79.15,190.35 L 78.79,190.20 L 78.49,190.01 L 78.36,189.73 L 78.43,189.12 L 78.82,187.80 L 81.21,186.70 L 81.08,186.45 L 81.02,186.19 L 80.99,185.86 L 80.99,185.39 L 80.84,185.49 L 80.46,185.64 L 80.32,185.74 L 80.30,184.75 L 80.32,184.43 L 80.12,184.43 L 79.87,184.92 L 79.53,184.84 L 79.10,184.62 L 78.60,184.72 L 79.04,184.89 L 79.35,185.23 L 79.55,185.73 L 79.68,186.38 L 79.53,186.41 L 79.49,186.45 L 79.49,186.52 L 79.45,186.70 L 79.07,186.42 L 78.85,186.60 L 78.60,186.90 L 78.15,187.02 L 78.27,187.16 L 78.60,187.66 L 78.16,187.87 L 78.00,188.31 L 77.90,188.74 L 77.61,188.94 L 77.38,188.76 L 76.41,187.66 L 75.60,187.43 L 74.20,187.05 L 73.35,187.02 L 73.93,186.79 L 74.49,186.85 L 75.76,187.31 L 75.76,187.02 L 75.25,186.71 L 74.69,186.52 L 73.35,186.38 L 73.35,186.03 L 73.63,186.00 L 73.77,185.90 L 73.81,185.66 L 73.81,185.23 L 73.91,185.04 L 74.45,185.12 L 74.65,185.07 L 75.06,184.03 L 75.35,183.47 L 75.76,183.15 L 75.76,182.80 L 75.07,183.61 L 74.19,184.43 L 73.23,185.00 L 72.56,185.16 L 72.80,185.30 L 73.00,185.50 L 73.15,185.74 L 73.15,186.03 L 70.55,186.68 L 70.10,186.54 L 69.96,186.28 L 69.01,185.07 L 68.55,184.11 L 68.20,183.70 L 68.07,183.50 L 67.95,183.15 L 67.60,183.44 L 67.08,183.42 L 65.95,183.15 L 65.13,183.18 L 64.87,183.15 L 64.62,183.00 L 64.26,182.59 L 64.11,182.50 L 62.90,182.57 L 62.29,182.35 L 62.02,181.71 L 61.75,181.58 L 60.09,182.50 L 59.63,182.05 L 58.95,182.07 L 58.24,182.22 L 57.67,182.16 L 57.62,182.00 L 57.01,180.88 L 56.79,180.63 L 56.56,180.45 L 56.45,180.17 L 56.58,179.62 L 56.30,179.61 L 56.11,179.53 L 55.71,179.28 L 55.61,178.76 L 55.01,178.08 L 54.17,177.52 L 53.32,177.35 L 53.61,178.31 L 53.38,179.02 L 52.67,179.80 L 52.02,179.62 L 52.34,179.65 L 52.59,179.58 L 52.78,179.37 L 52.89,178.95 L 52.50,179.10 L 52.19,179.11 L 51.95,179.22 L 51.78,179.62 L 50.89,178.88 L 50.46,178.71 L 49.95,178.66 L 49.56,178.45 L 49.16,177.89 L 48.85,177.16 L 48.75,176.39 L 48.41,176.95 L 48.60,177.66 L 49.03,178.30 L 49.42,178.66 L 49.42,178.95 L 49.02,178.99 L 48.70,179.10 L 48.42,179.31 L 48.10,179.62 L 47.50,178.59 L 47.05,178.71 L 46.96,179.29 L 47.42,179.62 L 47.34,179.80 L 47.23,179.94 L 47.23,180.24 L 48.10,180.24 L 48.10,180.59 L 47.06,181.58 L 46.58,181.87 L 45.79,182.09 L 41.13,181.87 L 41.15,181.51 L 41.08,180.86 L 41.13,180.59 L 41.33,180.46 L 41.63,180.47 L 41.90,180.41 L 42.02,180.09 L 41.91,179.25 L 41.44,178.05 L 41.13,176.77 L 40.65,175.92 L 39.13,173.97 L 36.32,171.76 L 36.00,171.59 L 35.57,171.85 L 35.18,172.32 L 34.77,172.55 L 33.82,171.62 L 33.27,171.53 L 32.19,171.59 L 29.80,170.92 L 30.02,170.75 L 30.18,170.47 L 30.31,170.17 L 30.50,169.83 L 30.52,169.66 L 30.56,169.48 L 30.67,169.32 L 30.78,169.31 L 31.03,169.59 L 31.22,169.67 L 41.45,167.40 L 43.26,167.94 L 43.74,167.75 L 43.88,167.41 L 44.19,166.09 L 44.04,165.56 L 43.59,164.99 L 43.50,164.66 L 43.34,163.61 L 42.91,163.18 L 41.56,162.89 L 41.31,162.73 L 41.11,162.50 L 40.97,162.22 L 40.89,161.92 L 40.10,162.22 L 38.40,161.15 L 37.52,161.44 L 37.06,162.27 L 36.61,163.34 L 36.05,164.24 L 35.23,164.51 L 35.51,163.52 L 35.67,163.20 L 35.31,162.67 L 35.11,162.27 L 35.03,161.92 L 35.19,161.37 L 35.44,161.16 L 35.56,160.98 L 35.34,160.50 L 34.95,160.40 L 33.04,160.32 L 33.12,159.83 L 33.04,159.36 L 33.39,159.17 L 33.65,159.19 L 33.92,159.30 L 34.26,159.36 L 34.67,159.22 L 34.74,158.90 L 34.66,158.57 L 34.60,158.40 L 35.17,156.94 L 35.57,156.56 L 36.10,156.80 L 35.68,158.53 L 36.56,158.95 L 39.39,158.75 L 39.72,158.91 L 39.93,159.11 L 40.17,159.29 L 40.59,159.36 L 40.97,159.32 L 42.47,158.89 L 44.60,158.75 L 44.40,158.95 L 44.20,159.03 L 43.74,159.04 L 44.39,159.30 L 46.99,158.75 L 46.99,158.40 L 46.00,158.47 L 45.62,158.29 L 45.49,157.73 L 45.20,158.10 L 44.76,158.22 L 44.36,158.06 L 44.19,157.59 L 43.99,157.64 L 42.63,157.73 L 42.90,157.31 L 43.03,157.20 L 43.30,157.09 L 43.32,156.89 L 43.46,156.70 L 43.77,156.47 L 44.39,155.81 L 43.85,155.82 L 43.13,156.33 L 42.63,156.48 L 42.63,156.16 L 42.86,156.16 L 42.86,155.81 L 42.63,155.81 L 42.53,156.04 L 42.33,156.28 L 42.22,156.48 L 41.74,156.28 L 40.74,156.96 L 40.03,157.09 L 40.11,156.91 L 40.15,156.89 L 40.26,156.80 L 40.03,156.48 L 39.76,156.74 L 39.39,156.93 L 38.97,157.05 L 38.53,157.09 L 38.53,156.80 L 40.34,154.64 L 40.69,154.35 L 43.74,152.58 L 43.17,152.75 L 42.17,153.31 L 41.54,153.54 L 39.39,153.89 L 38.41,154.30 L 36.40,155.55 L 34.85,155.92 L 33.90,156.40 L 33.28,156.48 L 32.72,156.35 L 31.62,155.91 L 31.00,155.81 L 30.89,155.96 L 30.89,156.30 L 30.84,156.64 L 30.56,156.80 L 28.95,156.78 L 28.53,156.62 L 28.25,156.14 L 28.05,155.17 L 28.64,155.11 L 28.59,154.51 L 28.05,153.25 L 28.00,152.36 L 28.16,151.49 L 28.54,150.84 L 29.13,150.66 L 29.13,150.36 L 28.33,149.78 L 28.65,148.42 L 29.43,146.99 L 30.00,146.17 L 30.33,146.38 L 30.67,146.52 L 30.44,146.17 L 30.94,145.83 L 31.54,145.64 L 32.53,145.53 L 33.15,145.70 L 34.20,146.29 L 34.60,146.17 L 33.86,145.18 L 33.63,144.54 L 34.05,144.25 L 35.50,144.62 L 36.10,144.60 L 35.23,144.25 L 35.33,144.06 L 35.38,143.90 L 35.31,143.76 L 35.03,143.58 L 35.03,143.29 L 37.52,143.29 L 38.24,143.16 L 39.29,142.67 L 40.03,142.65 L 39.59,142.39 L 39.39,142.33 L 39.39,141.98 L 40.30,141.82 L 41.18,141.31 L 42.04,140.98 L 42.86,141.02 L 43.44,141.69 L 43.21,142.73 L 43.95,142.65 L 44.92,142.08 L 45.26,141.98 L 45.65,142.06 L 46.37,142.34 L 46.79,142.33 L 46.79,141.98 L 46.18,141.81 L 46.35,141.33 L 46.89,140.78 L 47.42,140.41 L 48.04,140.17 L 48.77,140.03 L 49.50,140.08 L 50.07,140.41 L 50.26,140.12 L 50.43,140.13 L 50.59,140.35 L 50.72,140.70 L 50.92,140.70 L 51.13,140.48 L 51.26,140.20 L 51.28,139.85 L 51.15,139.42 L 51.59,139.34 L 51.98,139.19 L 52.65,138.78 L 53.78,138.45 L 53.98,138.60 L 53.90,139.05 L 53.78,139.39 L 53.82,139.63 L 54.19,139.77 L 54.19,140.06 L 53.98,140.06 L 53.98,140.41 L 54.29,140.61 L 54.51,140.96 L 54.56,141.43 L 54.39,141.98 L 55.29,141.11 L 55.75,140.87 L 56.38,141.02 L 56.07,141.30 L 55.93,141.37 L 55.93,141.66 L 56.31,142.17 L 57.25,142.76 L 57.67,143.29 L 57.90,142.97 L 57.67,142.65 L 57.90,142.33 L 57.75,142.04 L 57.64,141.65 L 57.47,140.70 L 57.67,140.70 L 57.77,140.97 L 57.86,141.11 L 58.12,141.37 L 58.04,140.55 L 58.13,139.65 L 58.38,139.12 L 58.77,139.42 L 58.91,139.20 L 58.98,138.98 L 59.00,138.72 L 58.99,138.43 L 59.40,139.00 L 59.99,139.18 L 61.47,139.10 L 61.83,139.24 L 62.56,139.88 L 62.91,140.06 L 63.32,140.07 L 64.45,139.77 L 64.44,140.56 L 65.22,140.80 L 66.15,140.80 L 66.60,140.55 L 66.29,139.47 L 66.16,138.75 L 66.29,138.43 L 67.95,138.14 L 67.48,137.85 L 66.39,136.51 L 66.25,135.74 L 66.58,135.34 L 67.49,134.93 L 68.18,133.72 L 68.36,133.33 L 68.55,133.33 L 68.85,133.56 L 69.86,133.63 L 70.96,134.26 L 71.40,134.29 L 71.22,134.43 L 71.13,134.56 L 71.07,134.72 L 70.97,134.93 L 71.71,134.99 L 72.10,134.96 L 72.38,134.77 L 72.70,134.39 L 72.92,134.24 L 75.60,133.26 L 75.97,132.98 L 76.19,132.98 L 76.49,133.06 L 77.44,131.91 L 77.95,132.02 L 78.16,132.70 L 78.14,133.61 L 77.91,134.46 L 77.50,134.93 L 77.53,135.14 L 77.57,135.28 L 77.73,135.57 L 77.85,134.98 L 78.11,134.53 L 79.06,133.38 L 79.84,132.72 L 80.12,132.37 L 80.45,132.52 L 81.04,131.82 L 81.44,131.70 L 81.83,131.96 L 82.06,132.38 L 82.08,132.87 L 81.86,133.33 L 81.86,133.63 L 82.29,133.97 L 82.05,134.35 L 81.64,135.57 L 81.43,135.95 L 80.75,136.83 L 80.75,137.18 L 80.99,137.18 L 82.04,135.06 L 82.66,134.17 L 83.18,134.29 L 83.49,134.03 L 83.83,133.95 L 84.16,134.03 L 84.48,134.29 L 84.24,134.61 L 84.37,134.66 L 84.44,134.66 L 84.47,134.71 L 84.48,134.93 L 84.17,135.02 L 83.93,135.16 L 83.39,135.57 L 83.39,135.87 L 83.81,136.22 L 84.62,136.52 L 86.24,136.60 L 86.87,136.83 L 86.82,137.22 L 86.83,137.50 L 86.87,137.82 L 86.56,138.07 L 86.44,138.14 L 86.44,138.43 L 86.90,138.72 L 87.48,139.22 L 87.96,139.77 L 88.17,140.23 L 90.24,141.98 L 90.56,143.38 L 90.69,143.76 L 90.74,144.00 L 90.64,144.21 L 90.58,144.45 L 90.69,144.75 L 90.84,144.89 L 91.26,145.09 L 92.02,145.66 L 93.83,146.52 L 93.74,146.95 L 93.61,147.28 L 93.43,147.54 L 93.18,147.78 L 93.55,147.79 L 93.86,147.96 L 94.13,148.24 L 94.40,148.59 L 94.84,148.95 L 94.92,148.51 L 94.91,147.83 L 95.04,147.48 L 96.30,147.55 L 96.82,147.33 L 97.43,146.67 L 98.19,145.50 L 98.43,145.21 L 98.77,144.95 L 99.33,144.77 L 101.47,143.46 L 101.92,142.97 L 101.92,142.65 L 101.65,142.62 L 101.03,142.33 L 102.45,141.91 L 103.14,142.01 L 103.42,142.65 L 104.25,142.33 L 105.21,141.71 L 106.04,140.91 L 106.48,140.06 L 106.60,140.60 L 106.82,140.94 L 107.14,141.09 L 107.57,141.02 L 107.57,141.37 L 107.33,141.56 L 107.19,141.80 L 107.07,142.07 L 106.92,142.33 L 106.03,143.29 L 106.59,143.73 L 107.18,143.34 L 107.83,142.68 L 108.55,142.33 L 108.70,142.58 L 108.88,143.68 L 108.99,143.93 L 109.35,144.10 L 109.56,144.51 L 109.67,145.03 L 109.74,145.53 L 110.08,145.34 L 110.31,144.99 L 110.42,144.50 L 110.41,143.93 L 110.54,144.62 L 110.71,145.21 L 111.00,145.48 L 111.47,145.21 L 111.47,144.89 L 111.34,144.84 L 111.06,144.60 L 111.41,144.07 L 111.78,143.79 L 112.17,143.84 L 112.58,144.25 L 112.36,143.96 L 112.19,143.64 L 111.93,142.97 L 113.34,142.48 L 114.87,142.33 L 114.95,142.54 L 115.62,143.76 L 115.67,144.26 L 115.83,144.73 L 116.11,145.07 L 116.50,145.21 L 116.37,145.67 L 116.27,145.85 L 117.09,147.07 L 117.28,147.70 L 117.16,148.73 L 117.47,148.40 L 118.46,147.78 L 117.57,147.16 L 117.74,146.79 L 117.27,145.96 L 117.16,145.21 L 117.37,145.21 L 117.50,145.42 L 117.64,145.56 L 118.03,145.85 L 117.79,145.31 L 117.50,145.02 L 117.17,144.91 L 116.81,144.89 L 116.51,144.62 L 115.92,143.22 L 115.62,142.65 L 115.72,142.27 L 115.95,141.85 L 116.32,141.51 L 116.81,141.37 L 116.92,141.22 L 116.92,140.89 L 116.98,140.56 L 117.26,140.41 L 118.46,140.41 L 118.26,140.06 L 121.50,139.42 L 121.40,139.62 L 121.40,139.83 L 121.50,140.08 L 121.73,140.41 L 120.94,141.67 L 120.95,142.76 L 121.67,143.57 L 123.01,143.93 L 125.34,143.96 L 127.85,143.58 L 129.38,142.76 L 129.57,142.72 L 129.89,142.65 L 132.41,142.97 L 135.82,142.22 L 136.98,142.65 L 136.48,141.84 L 135.77,141.48 L 134.56,141.37 L 134.55,141.48 L 134.40,141.66 L 134.23,141.73 L 134.14,141.52 L 134.11,141.21 L 134.00,140.95 L 133.83,140.77 L 132.74,140.45 L 132.34,140.20 L 132.17,139.91 L 131.90,138.81 L 130.72,137.78 L 130.45,136.67 L 130.44,135.37 L 130.30,134.26 L 129.92,133.52 L 129.15,133.33 L 129.15,132.98 L 129.59,132.79 L 129.93,132.36 L 130.14,131.82 L 130.40,129.57 L 130.61,129.09 L 130.89,129.49 L 131.06,128.95 L 131.09,128.54 L 130.93,128.28 L 130.55,128.18 L 130.42,127.91 L 130.76,125.19 L 130.97,124.49 L 131.40,124.27 L 132.17,124.63 L 132.17,124.34 L 131.56,124.05 L 130.84,124.05 L 130.25,124.39 L 130.00,125.11 L 129.90,125.30 L 129.67,125.03 L 129.45,124.56 L 129.35,124.16 L 129.37,123.04 L 129.44,122.54 L 129.58,122.07 L 129.14,121.98 L 128.97,121.63 L 129.00,121.10 L 129.15,120.49 L 129.37,119.89 L 129.59,119.60 L 130.22,119.18 L 129.82,118.89 L 129.75,118.96 L 129.58,119.18 L 129.32,118.44 L 129.10,117.56 L 128.97,116.64 L 128.91,115.79 L 129.16,115.34 L 129.74,115.30 L 130.89,115.63 L 130.89,115.34 L 130.21,115.14 L 129.40,114.76 L 128.71,114.74 L 128.46,115.63 L 127.96,115.06 L 127.43,113.33 L 126.96,112.78 L 127.17,112.57 L 127.26,112.50 L 127.40,112.43 L 126.48,111.73 L 126.10,111.21 L 125.86,110.48 L 126.51,110.48 L 126.51,110.19 L 126.09,109.23 L 125.86,109.23 L 125.60,110.04 L 125.01,109.68 L 124.30,108.92 L 123.67,108.56 L 123.75,108.23 L 123.81,108.10 L 123.91,107.92 L 123.46,108.02 L 123.04,108.20 L 122.67,108.24 L 122.36,107.92 L 122.27,107.31 L 122.39,105.71 L 122.36,105.03 L 122.27,104.71 L 122.14,104.41 L 121.67,103.60 L 121.63,103.37 L 121.61,103.13 L 121.50,102.77 L 121.18,102.26 L 120.36,101.29 L 120.20,101.01 L 120.40,100.36 L 121.29,99.57 L 121.50,99.09 L 121.64,97.63 L 121.63,96.85 L 121.40,96.18 L 121.14,95.66 L 120.96,95.21 L 120.68,94.88 L 119.66,94.69 L 118.26,94.12 L 118.51,93.01 L 118.45,92.31 L 118.59,91.95 L 119.44,91.85 L 119.74,91.95 L 120.37,92.39 L 120.75,92.49 L 121.63,92.36 L 121.95,92.49 L 122.11,92.69 L 122.22,93.25 L 122.36,93.48 L 122.51,93.52 L 122.86,93.45 L 123.01,93.48 L 123.71,93.71 L 125.82,94.01 L 128.20,94.79 L 128.70,94.76 L 128.72,94.87 L 128.73,95.10 L 128.80,95.32 L 129.03,95.43 L 129.33,95.32 L 129.76,94.86 L 130.11,94.76 L 130.48,94.82 L 131.14,95.06 L 131.52,95.08 L 132.06,94.84 L 132.55,94.39 L 133.37,93.32 L 133.83,92.98 L 135.30,92.54 L 135.88,92.49 L 139.70,93.16 L 139.96,93.29 L 140.08,93.63 L 140.24,94.41 L 140.94,95.83 L 141.08,96.64 L 140.27,97.20 L 140.13,97.64 L 140.05,98.08 L 139.93,98.28 L 139.22,98.29 L 138.94,98.39 L 138.74,98.63 L 138.58,99.74 L 138.99,100.66 L 139.53,101.49 L 140.00,102.79 L 142.43,105.73 L 142.73,106.44 L 142.84,107.47 L 142.78,107.98 L 142.64,108.35 L 142.49,108.59 L 142.43,108.73 L 142.53,109.21 L 142.79,109.17 L 143.14,108.96 L 143.50,108.91 L 143.84,109.19 L 144.08,109.52 L 144.41,109.71 L 145.03,109.55 L 145.03,109.23 L 144.70,108.76 L 144.94,108.12 L 145.47,107.55 L 146.02,107.31 L 150.21,107.52 L 153.97,108.91 L 159.42,109.23 L 160.78,109.62 L 161.56,109.69 L 162.72,109.08 L 163.50,109.25 L 164.87,109.84 L 167.04,109.84 L 167.60,110.06 L 168.56,110.67 L 170.16,111.03 L 173.13,112.78 L 173.94,112.07 L 179.03,110.91 L 180.52,110.22 L 181.39,109.48 L 182.11,109.29 L 182.40,109.07 L 183.16,107.92 L 185.27,106.44 L 189.23,105.58 L 193.18,104.71 L 194.65,103.99 L 195.26,103.47 L 195.79,102.77 L 193.53,104.13 L 190.90,104.49 L 188.27,104.15 L 186.00,103.40 L 185.35,103.40 L 184.79,103.36 L 184.06,103.13 L 183.43,102.77 L 183.16,102.31 L 183.06,102.03 L 182.61,101.74 L 182.50,101.34 L 182.54,100.82 L 182.64,100.49 L 184.27,97.61 L 185.54,93.48 L 186.02,92.93 L 187.61,91.71 L 187.95,91.70 L 188.27,91.40 L 192.43,89.56 L 192.75,89.13 L 196.73,86.85 L 197.83,86.53 L 199.08,85.71 L 201.56,84.84 L 204.30,84.87 L 217.38,80.84 L 218.16,80.25 L 218.93,80.00 L 220.19,78.66 L 224.34,75.49 L 226.02,73.51 L 226.39,73.21 L 226.66,72.81 L 227.37,70.33 L 228.46,68.94 L 229.55,68.80 L 232.70,70.26 L 233.01,70.24 L 233.28,69.98 L 233.28,69.66 L 232.94,69.68 L 232.73,69.61 L 232.56,69.41 L 232.39,69.05 L 233.04,69.05 L 233.04,68.70 L 232.42,68.69 L 231.78,68.49 L 231.29,68.12 L 231.08,67.59 L 230.78,66.99 L 229.42,66.36 L 229.11,65.98 L 229.16,64.47 L 229.43,62.64 L 230.08,61.39 L 230.81,61.53 L 231.30,61.63 L 231.30,61.33 L 229.55,60.03 L 229.55,59.71 L 230.13,58.12 L 230.15,55.92 L 230.31,54.00 L 231.30,53.30 L 230.44,52.06 L 230.27,51.40 L 230.13,49.20 L 229.80,47.20 L 229.78,46.23 L 229.94,45.39 L 230.61,43.54 L 230.97,42.85 L 231.15,41.96 L 230.95,40.88 L 230.44,39.15 L 230.36,38.50 L 230.35,38.26 L 231.12,37.69 L 231.40,37.58 L 232.06,37.52 L 232.67,37.31 L 233.20,36.79 L 234.12,35.60 L 235.10,34.74 L 241.19,32.26 L 241.76,32.37 L 242.84,31.77 L 247.95,31.17 L 253.40,29.51 L 253.74,29.34 L 254.00,29.30 L 255.91,29.51 L 258.50,28.88 L 259.79,28.32 L 260.26,28.01 L 260.27,28.00 Z"/>
  <path fill="#000000" d="M 452.41,444.47 L 452.67,443.94 L 452.41,443.67 L 451.98,443.52 L 451.76,443.34 L 451.89,442.89 L 452.22,442.80 L 453.06,442.84 L 453.30,442.71 L 453.54,442.50 L 453.84,442.31 L 455.12,442.04 L 455.55,441.83 L 455.88,441.56 L 456.07,441.46 L 456.21,441.50 L 456.29,441.46 L 456.32,441.08 L 455.85,440.68 L 455.79,440.60 L 454.60,439.96 L 454.52,439.78 L 454.44,439.47 L 454.30,439.29 L 453.85,439.71 L 453.66,439.70 L 453.54,439.49 L 453.49,439.16 L 453.65,438.99 L 454.60,438.36 L 453.90,437.73 L 453.23,437.79 L 451.97,438.36 L 452.21,438.01 L 452.02,437.61 L 451.90,437.10 L 451.88,436.57 L 451.97,436.12 L 452.25,436.36 L 452.56,436.35 L 452.85,436.16 L 453.06,435.83 L 453.45,436.08 L 453.57,435.87 L 453.61,435.48 L 453.73,435.16 L 453.88,434.94 L 453.94,434.73 L 454.09,434.58 L 455.11,434.40 L 455.39,434.09 L 455.45,433.63 L 455.45,433.06 L 455.80,432.47 L 455.94,432.10 L 455.79,431.92 L 455.39,431.88 L 455.31,431.74 L 455.38,431.54 L 455.64,430.35 L 456.05,429.82 L 456.60,429.54 L 457.20,429.36 L 457.02,428.92 L 457.19,427.90 L 456.97,427.44 L 456.97,427.09 L 457.21,427.23 L 457.30,427.24 L 457.34,427.33 L 457.42,427.73 L 457.95,427.41 L 458.29,427.58 L 458.57,427.91 L 458.94,428.08 L 459.44,427.90 L 459.82,427.44 L 460.09,426.81 L 460.26,426.13 L 460.03,425.81 L 461.22,425.74 L 463.24,424.59 L 466.79,423.76 L 467.80,423.20 L 467.90,422.29 L 469.62,420.21 L 469.96,419.92 L 470.71,419.78 L 471.46,419.77 L 471.81,419.88 L 472.09,419.86 L 473.74,420.37 L 474.41,420.77 L 474.62,421.01 L 474.82,421.32 L 474.99,421.70 L 475.28,422.61 L 475.50,422.61 L 476.63,420.48 L 477.10,419.12 L 476.80,418.10 L 477.05,417.20 L 476.88,416.38 L 476.44,415.61 L 475.93,414.89 L 476.80,413.58 L 476.79,413.18 L 476.59,412.73 L 476.58,412.33 L 476.71,411.88 L 476.92,411.56 L 477.66,410.70 L 477.55,410.47 L 477.52,410.33 L 477.56,410.14 L 477.66,409.74 L 477.34,409.36 L 477.13,408.61 L 477.08,407.79 L 477.23,407.18 L 477.75,406.81 L 479.06,406.80 L 479.64,406.54 L 480.06,407.18 L 480.34,407.45 L 480.96,407.82 L 480.96,408.17 L 480.69,408.55 L 480.64,409.05 L 480.79,409.59 L 481.15,410.06 L 481.01,410.94 L 481.61,415.21 L 481.56,416.62 L 480.53,421.01 L 480.56,421.58 L 480.50,422.24 L 480.53,423.60 L 480.49,423.72 L 480.39,423.84 L 480.31,423.99 L 480.29,424.21 L 480.37,424.34 L 480.52,424.44 L 480.66,424.49 L 480.72,424.50 L 480.81,424.92 L 480.89,425.18 L 480.88,425.43 L 480.72,425.81 L 480.98,426.04 L 481.09,426.35 L 481.17,426.71 L 481.37,427.09 L 481.63,427.31 L 482.48,427.73 L 482.40,427.05 L 482.26,426.74 L 481.78,425.52 L 482.70,427.01 L 483.00,427.82 L 483.13,428.72 L 483.06,431.45 L 483.17,432.86 L 483.57,433.85 L 483.37,434.46 L 483.23,435.11 L 483.15,435.85 L 483.13,436.73 L 483.28,437.69 L 483.87,439.52 L 484.00,440.44 L 483.77,446.28 L 484.00,447.38 L 483.91,447.77 L 483.85,448.59 L 483.78,448.96 L 483.56,449.38 L 482.70,450.27 L 482.35,450.87 L 481.87,452.02 L 479.68,455.50 L 479.20,456.03 L 479.03,456.46 L 479.02,458.13 L 478.75,461.39 L 479.02,464.59 L 478.98,468.03 L 478.88,468.26 L 478.64,468.37 L 478.33,468.67 L 478.04,469.08 L 477.88,469.54 L 478.31,469.54 L 478.23,470.37 L 478.07,470.90 L 477.77,471.14 L 477.44,471.11 L 477.19,471.13 L 477.09,471.39 L 477.23,472.10 L 476.81,471.87 L 476.33,471.75 L 475.87,471.71 L 475.50,471.78 L 475.56,472.19 L 475.25,472.66 L 475.07,473.10 L 475.50,473.41 L 476.54,472.93 L 477.18,472.81 L 477.47,473.24 L 477.36,473.90 L 477.05,474.46 L 476.60,474.84 L 476.04,474.98 L 475.74,475.21 L 475.50,475.70 L 475.18,476.15 L 474.62,476.26 L 474.75,476.60 L 474.79,476.92 L 474.75,477.24 L 474.62,477.58 L 474.99,477.74 L 475.09,478.10 L 474.95,478.51 L 474.62,478.83 L 474.82,479.18 L 474.32,479.42 L 473.46,480.05 L 472.91,480.14 L 472.91,480.48 L 473.21,480.76 L 473.31,481.12 L 473.20,481.48 L 472.91,481.77 L 472.91,482.06 L 473.27,481.89 L 473.78,481.36 L 474.17,481.10 L 474.05,481.80 L 473.80,482.59 L 473.53,483.30 L 473.31,483.69 L 472.78,484.00 L 472.37,483.85 L 471.59,483.05 L 471.09,482.81 L 470.10,482.64 L 469.28,482.24 L 469.62,481.03 L 469.78,480.87 L 470.07,480.78 L 469.55,480.27 L 468.78,479.91 L 468.33,479.50 L 468.75,478.83 L 468.75,478.54 L 468.38,478.67 L 467.44,479.50 L 467.23,479.18 L 467.30,479.08 L 467.34,479.04 L 467.38,478.98 L 467.44,478.83 L 467.10,478.94 L 466.98,479.02 L 466.79,479.18 L 466.58,478.83 L 466.24,478.51 L 465.44,478.22 L 464.65,478.09 L 464.17,478.22 L 463.82,477.95 L 463.57,477.63 L 463.25,477.37 L 462.51,477.19 L 462.43,477.01 L 462.37,476.80 L 462.20,476.61 L 461.90,476.52 L 461.64,476.52 L 461.39,476.49 L 461.11,476.26 L 461.55,475.94 L 461.55,475.65 L 461.14,475.49 L 460.91,475.33 L 460.61,475.37 L 460.17,475.24 L 459.76,475.03 L 459.59,474.84 L 459.74,473.93 L 459.64,473.62 L 459.16,473.41 L 459.39,472.80 L 459.60,471.84 L 459.91,471.19 L 460.46,471.49 L 462.16,470.62 L 462.43,470.34 L 462.58,469.70 L 462.94,469.36 L 463.37,469.09 L 463.75,468.58 L 463.01,468.54 L 461.01,467.91 L 460.25,467.89 L 459.50,467.74 L 459.09,467.28 L 459.37,466.34 L 458.59,466.33 L 457.28,466.89 L 456.53,466.95 L 456.61,466.78 L 456.77,466.34 L 456.32,466.37 L 455.97,466.26 L 455.66,466.10 L 455.25,465.99 L 455.66,465.76 L 456.56,465.60 L 456.97,465.35 L 457.23,464.95 L 457.37,464.46 L 457.32,464.03 L 456.97,463.78 L 456.97,463.43 L 457.69,463.42 L 458.34,463.18 L 459.37,462.49 L 459.22,462.05 L 458.97,461.74 L 458.66,461.57 L 458.29,461.50 L 459.34,461.13 L 459.59,460.87 L 459.51,460.76 L 459.40,460.45 L 459.27,460.18 L 459.16,460.22 L 459.54,459.56 L 459.59,459.55 L 459.68,459.32 L 459.96,458.92 L 460.03,458.62 L 459.95,458.60 L 459.59,458.30 L 459.41,457.88 L 459.26,457.60 L 459.06,457.43 L 458.72,457.34 L 458.09,457.41 L 457.00,458.07 L 456.32,458.30 L 455.01,458.39 L 454.45,458.54 L 453.95,458.91 L 453.73,458.30 L 454.09,457.52 L 453.95,456.88 L 453.06,455.71 L 454.62,455.54 L 455.25,455.26 L 455.68,454.43 L 455.28,454.12 L 455.55,453.58 L 456.18,453.06 L 456.87,452.83 L 457.03,452.70 L 457.88,452.20 L 458.05,452.19 L 458.10,451.60 L 457.92,451.28 L 457.42,450.88 L 456.87,449.54 L 456.65,449.13 L 456.32,449.04 L 455.43,449.31 L 455.25,449.13 L 455.01,448.53 L 454.44,448.16 L 453.71,447.98 L 453.06,448.00 L 453.21,447.56 L 453.30,447.38 L 453.06,447.15 L 452.80,447.02 L 452.51,446.99 L 452.21,447.03 L 452.53,446.96 L 452.79,446.81 L 453.30,446.42 L 453.30,446.07 L 452.41,446.07 L 452.41,445.75 L 452.79,445.59 L 452.92,445.13 L 452.79,444.67 L 452.41,444.47 Z"/>
</svg>